<mxfile host="www.draw.io" modified="2019-11-04T05:11:50.127Z" agent="Mozilla/5.0 (Windows NT 10.0; Win64; x64) AppleWebKit/537.36 (KHTML, like Gecko) Chrome/78.0.3904.70 Safari/537.36" etag="urlHtwuAwXBIyHZWOEzM" version="12.1.9" type="github" pages="1">
  <diagram id="BROuPrvjw0gyoa1qX2As" name="Page-1">
    <mxGraphModel dx="2300" dy="699" grid="1" gridSize="10" guides="1" tooltips="1" connect="1" arrows="1" fold="1" page="1" pageScale="1" pageWidth="827" pageHeight="1169" math="0" shadow="0">
      <root>
        <mxCell id="0"/>
        <mxCell id="1" parent="0"/>
        <mxCell id="CRaWEbyV1eBnN35AoO-8-3" value="" style="group;rotation=-90;" parent="1" vertex="1" connectable="0">
          <mxGeometry x="-630" y="102.5" width="566" height="651" as="geometry"/>
        </mxCell>
        <mxCell id="PYn9PHnMwua01pBCgGZF-1" value="" style="rounded=1;whiteSpace=wrap;html=1;fillColor=#f8cecc;strokeColor=#b85450;rotation=-90;" parent="CRaWEbyV1eBnN35AoO-8-3" vertex="1">
          <mxGeometry x="-35" y="439" width="50" height="30" as="geometry"/>
        </mxCell>
        <mxCell id="PYn9PHnMwua01pBCgGZF-2" value="" style="endArrow=classic;html=1;exitX=0.5;exitY=1;exitDx=0;exitDy=0;strokeWidth=1;entryX=0.111;entryY=0.025;entryDx=0;entryDy=0;entryPerimeter=0;" parent="CRaWEbyV1eBnN35AoO-8-3" target="PYn9PHnMwua01pBCgGZF-105" edge="1">
          <mxGeometry width="50" height="50" relative="1" as="geometry">
            <mxPoint x="5" y="455" as="sourcePoint"/>
            <mxPoint x="190" y="467.5" as="targetPoint"/>
          </mxGeometry>
        </mxCell>
        <mxCell id="PYn9PHnMwua01pBCgGZF-3" value="" style="endArrow=classic;html=1;exitX=0.022;exitY=1.1;exitDx=0;exitDy=0;exitPerimeter=0;strokeWidth=1;entryX=0;entryY=0.5;entryDx=0;entryDy=0;" parent="CRaWEbyV1eBnN35AoO-8-3" target="PYn9PHnMwua01pBCgGZF-4" edge="1">
          <mxGeometry width="50" height="50" relative="1" as="geometry">
            <mxPoint x="5" y="399" as="sourcePoint"/>
            <mxPoint x="35" y="398" as="targetPoint"/>
          </mxGeometry>
        </mxCell>
        <mxCell id="PYn9PHnMwua01pBCgGZF-4" value="&lt;b&gt;Conv3&lt;/b&gt;" style="rounded=1;whiteSpace=wrap;html=1;fillColor=#dae8fc;strokeColor=#6c8ebf;arcSize=50;rotation=0;" parent="CRaWEbyV1eBnN35AoO-8-3" vertex="1">
          <mxGeometry x="28" y="388" width="43" height="20" as="geometry"/>
        </mxCell>
        <mxCell id="PYn9PHnMwua01pBCgGZF-13" value="" style="endArrow=classic;html=1;exitX=0.022;exitY=1.1;exitDx=0;exitDy=0;exitPerimeter=0;strokeWidth=1;entryX=0;entryY=0.5;entryDx=0;entryDy=0;" parent="CRaWEbyV1eBnN35AoO-8-3" target="PYn9PHnMwua01pBCgGZF-46" edge="1">
          <mxGeometry width="50" height="50" relative="1" as="geometry">
            <mxPoint x="5" y="341" as="sourcePoint"/>
            <mxPoint x="35" y="340" as="targetPoint"/>
          </mxGeometry>
        </mxCell>
        <mxCell id="PYn9PHnMwua01pBCgGZF-14" value="" style="endArrow=classic;html=1;exitX=0.5;exitY=1;exitDx=0;exitDy=0;strokeWidth=1;entryX=0;entryY=0.5;entryDx=0;entryDy=0;" parent="CRaWEbyV1eBnN35AoO-8-3" source="PYn9PHnMwua01pBCgGZF-43" target="PYn9PHnMwua01pBCgGZF-47" edge="1">
          <mxGeometry width="50" height="50" relative="1" as="geometry">
            <mxPoint x="15" y="323" as="sourcePoint"/>
            <mxPoint x="33" y="323" as="targetPoint"/>
          </mxGeometry>
        </mxCell>
        <mxCell id="PYn9PHnMwua01pBCgGZF-28" value="" style="endArrow=classic;html=1;strokeWidth=1;entryX=0;entryY=0.5;entryDx=0;entryDy=0;exitX=1;exitY=0.5;exitDx=0;exitDy=0;" parent="CRaWEbyV1eBnN35AoO-8-3" source="PYn9PHnMwua01pBCgGZF-47" target="PYn9PHnMwua01pBCgGZF-29" edge="1">
          <mxGeometry width="50" height="50" relative="1" as="geometry">
            <mxPoint x="60" y="237.5" as="sourcePoint"/>
            <mxPoint x="92" y="328.5" as="targetPoint"/>
          </mxGeometry>
        </mxCell>
        <mxCell id="PYn9PHnMwua01pBCgGZF-29" value="&lt;b&gt;Conv3&lt;/b&gt;" style="rounded=1;whiteSpace=wrap;html=1;fillColor=#dae8fc;strokeColor=#6c8ebf;arcSize=45;rotation=0;" parent="CRaWEbyV1eBnN35AoO-8-3" vertex="1">
          <mxGeometry x="87.5" y="276" width="43" height="20" as="geometry"/>
        </mxCell>
        <mxCell id="PYn9PHnMwua01pBCgGZF-34" value="" style="endArrow=classic;html=1;strokeWidth=1;entryX=0;entryY=0.5;entryDx=0;entryDy=0;exitX=1;exitY=0.5;exitDx=0;exitDy=0;" parent="CRaWEbyV1eBnN35AoO-8-3" source="PYn9PHnMwua01pBCgGZF-46" target="PYn9PHnMwua01pBCgGZF-35" edge="1">
          <mxGeometry width="50" height="50" relative="1" as="geometry">
            <mxPoint x="100" y="317.5" as="sourcePoint"/>
            <mxPoint x="113" y="339.5" as="targetPoint"/>
          </mxGeometry>
        </mxCell>
        <mxCell id="PYn9PHnMwua01pBCgGZF-35" value="&lt;b&gt;Conv3&lt;/b&gt;" style="rounded=1;whiteSpace=wrap;html=1;fillColor=#dae8fc;strokeColor=#6c8ebf;arcSize=45;rotation=0;" parent="CRaWEbyV1eBnN35AoO-8-3" vertex="1">
          <mxGeometry x="88" y="332" width="43" height="20" as="geometry"/>
        </mxCell>
        <mxCell id="PYn9PHnMwua01pBCgGZF-36" value="" style="endArrow=classic;html=1;exitX=1;exitY=0.5;exitDx=0;exitDy=0;strokeWidth=1;entryX=0;entryY=0.5;entryDx=0;entryDy=0;" parent="CRaWEbyV1eBnN35AoO-8-3" source="PYn9PHnMwua01pBCgGZF-29" target="PYn9PHnMwua01pBCgGZF-37" edge="1">
          <mxGeometry width="50" height="50" relative="1" as="geometry">
            <mxPoint x="200" y="285.5" as="sourcePoint"/>
            <mxPoint x="193" y="328.5" as="targetPoint"/>
          </mxGeometry>
        </mxCell>
        <mxCell id="PYn9PHnMwua01pBCgGZF-37" value="&lt;b&gt;Conv3&lt;/b&gt;" style="rounded=1;whiteSpace=wrap;html=1;fillColor=#dae8fc;strokeColor=#6c8ebf;arcSize=45;rotation=0;" parent="CRaWEbyV1eBnN35AoO-8-3" vertex="1">
          <mxGeometry x="149.5" y="276" width="43" height="20" as="geometry"/>
        </mxCell>
        <mxCell id="PYn9PHnMwua01pBCgGZF-41" value="" style="rounded=1;whiteSpace=wrap;html=1;fillColor=#fff2cc;strokeColor=#d6b656;rotation=-90;" parent="CRaWEbyV1eBnN35AoO-8-3" vertex="1">
          <mxGeometry x="-35" y="383" width="50" height="30" as="geometry"/>
        </mxCell>
        <mxCell id="PYn9PHnMwua01pBCgGZF-42" value="" style="rounded=1;whiteSpace=wrap;html=1;fillColor=#d5e8d4;strokeColor=#82b366;rotation=-90;" parent="CRaWEbyV1eBnN35AoO-8-3" vertex="1">
          <mxGeometry x="-35" y="327" width="50" height="30" as="geometry"/>
        </mxCell>
        <mxCell id="PYn9PHnMwua01pBCgGZF-43" value="" style="rounded=1;whiteSpace=wrap;html=1;fillColor=#e1d5e7;strokeColor=#9673a6;rotation=-90;" parent="CRaWEbyV1eBnN35AoO-8-3" vertex="1">
          <mxGeometry x="-35" y="271" width="50" height="30" as="geometry"/>
        </mxCell>
        <mxCell id="PYn9PHnMwua01pBCgGZF-46" value="&lt;b&gt;Conv3&lt;/b&gt;" style="rounded=1;whiteSpace=wrap;html=1;fillColor=#dae8fc;strokeColor=#6c8ebf;arcSize=45;rotation=0;" parent="CRaWEbyV1eBnN35AoO-8-3" vertex="1">
          <mxGeometry x="27" y="332" width="43" height="20" as="geometry"/>
        </mxCell>
        <mxCell id="PYn9PHnMwua01pBCgGZF-47" value="&lt;b&gt;Conv3&lt;/b&gt;" style="rounded=1;whiteSpace=wrap;html=1;fillColor=#dae8fc;strokeColor=#6c8ebf;arcSize=45;rotation=0;" parent="CRaWEbyV1eBnN35AoO-8-3" vertex="1">
          <mxGeometry x="26" y="276" width="43" height="20" as="geometry"/>
        </mxCell>
        <mxCell id="PYn9PHnMwua01pBCgGZF-51" value="" style="endArrow=classic;html=1;exitX=1;exitY=0.5;exitDx=0;exitDy=0;strokeWidth=1;entryX=0.59;entryY=0.05;entryDx=0;entryDy=0;entryPerimeter=0;" parent="CRaWEbyV1eBnN35AoO-8-3" source="PYn9PHnMwua01pBCgGZF-35" target="PYn9PHnMwua01pBCgGZF-105" edge="1">
          <mxGeometry width="50" height="50" relative="1" as="geometry">
            <mxPoint x="156" y="340" as="sourcePoint"/>
            <mxPoint x="180" y="357.5" as="targetPoint"/>
          </mxGeometry>
        </mxCell>
        <mxCell id="PYn9PHnMwua01pBCgGZF-84" value="" style="endArrow=classic;html=1;exitX=0.022;exitY=1.1;exitDx=0;exitDy=0;exitPerimeter=0;strokeWidth=1;entryX=0;entryY=0.5;entryDx=0;entryDy=0;" parent="CRaWEbyV1eBnN35AoO-8-3" target="PYn9PHnMwua01pBCgGZF-85" edge="1">
          <mxGeometry width="50" height="50" relative="1" as="geometry">
            <mxPoint x="340" y="374" as="sourcePoint"/>
            <mxPoint x="376" y="340" as="targetPoint"/>
          </mxGeometry>
        </mxCell>
        <mxCell id="PYn9PHnMwua01pBCgGZF-85" value="&lt;b&gt;&lt;font style=&quot;font-size: 15px&quot;&gt;Contrast &lt;br&gt;attention&lt;/font&gt;&lt;/b&gt;" style="rounded=0;whiteSpace=wrap;html=1;fillColor=#FF9191;strokeColor=#9673a6;rotation=0;" parent="CRaWEbyV1eBnN35AoO-8-3" vertex="1">
          <mxGeometry x="364" y="354" width="75" height="40" as="geometry"/>
        </mxCell>
        <mxCell id="PYn9PHnMwua01pBCgGZF-90" value="" style="shape=orEllipse;perimeter=ellipsePerimeter;whiteSpace=wrap;html=1;backgroundOutline=1;rotation=-90;" parent="CRaWEbyV1eBnN35AoO-8-3" vertex="1">
          <mxGeometry x="532" y="364" width="19" height="19" as="geometry"/>
        </mxCell>
        <mxCell id="PYn9PHnMwua01pBCgGZF-94" value="" style="endArrow=classic;html=1;strokeWidth=1;entryX=0.5;entryY=0;entryDx=0;entryDy=0;exitX=1;exitY=0.5;exitDx=0;exitDy=0;" parent="CRaWEbyV1eBnN35AoO-8-3" target="PYn9PHnMwua01pBCgGZF-90" edge="1">
          <mxGeometry width="50" height="50" relative="1" as="geometry">
            <mxPoint x="506" y="374" as="sourcePoint"/>
            <mxPoint x="508.5" y="229" as="targetPoint"/>
          </mxGeometry>
        </mxCell>
        <mxCell id="PYn9PHnMwua01pBCgGZF-97" value="&lt;b&gt;&lt;font style=&quot;font-size: 15px&quot;&gt;Channel&lt;br&gt;split&lt;/font&gt;&lt;/b&gt;" style="rounded=0;whiteSpace=wrap;html=1;strokeColor=none;fillColor=none;rotation=0;" parent="CRaWEbyV1eBnN35AoO-8-3" vertex="1">
          <mxGeometry x="-70" y="211" width="120" height="60" as="geometry"/>
        </mxCell>
        <mxCell id="PYn9PHnMwua01pBCgGZF-98" value="&lt;b&gt;&lt;font style=&quot;font-size: 15px&quot;&gt;Channel &lt;br&gt;shuffle&lt;/font&gt;&lt;/b&gt;" style="rounded=0;whiteSpace=wrap;html=1;strokeColor=none;fillColor=none;rotation=0;" parent="CRaWEbyV1eBnN35AoO-8-3" vertex="1">
          <mxGeometry x="266" y="198" width="120" height="60" as="geometry"/>
        </mxCell>
        <mxCell id="PYn9PHnMwua01pBCgGZF-100" value="&lt;b&gt;&lt;font style=&quot;font-size: 15px&quot;&gt;Concatenate&lt;/font&gt;&lt;/b&gt;" style="rounded=0;whiteSpace=wrap;html=1;strokeColor=none;fillColor=none;rotation=0;" parent="CRaWEbyV1eBnN35AoO-8-3" vertex="1">
          <mxGeometry x="173" y="205" width="120" height="60" as="geometry"/>
        </mxCell>
        <mxCell id="PYn9PHnMwua01pBCgGZF-137" value="" style="endArrow=classic;html=1;strokeWidth=1;exitX=0.5;exitY=1;exitDx=0;exitDy=0;" parent="CRaWEbyV1eBnN35AoO-8-3" source="PYn9PHnMwua01pBCgGZF-90" edge="1">
          <mxGeometry width="50" height="50" relative="1" as="geometry">
            <mxPoint x="565" y="367" as="sourcePoint"/>
            <mxPoint x="576" y="373.5" as="targetPoint"/>
          </mxGeometry>
        </mxCell>
        <mxCell id="PYn9PHnMwua01pBCgGZF-139" value="&lt;b&gt;&lt;font style=&quot;font-size: 15px&quot;&gt;8&lt;/font&gt;&lt;/b&gt;" style="rounded=0;whiteSpace=wrap;html=1;strokeColor=none;fillColor=none;rotation=0;" parent="CRaWEbyV1eBnN35AoO-8-3" vertex="1">
          <mxGeometry x="63" y="431" width="65" height="34" as="geometry"/>
        </mxCell>
        <mxCell id="PYn9PHnMwua01pBCgGZF-141" value="&lt;b&gt;&lt;font style=&quot;font-size: 15px&quot;&gt;8&lt;/font&gt;&lt;/b&gt;" style="rounded=0;whiteSpace=wrap;html=1;strokeColor=none;fillColor=none;rotation=0;" parent="CRaWEbyV1eBnN35AoO-8-3" vertex="1">
          <mxGeometry x="154.5" y="323.5" width="35" height="21" as="geometry"/>
        </mxCell>
        <mxCell id="CRaWEbyV1eBnN35AoO-8-2" value="" style="group;rotation=-90;" parent="CRaWEbyV1eBnN35AoO-8-3" vertex="1" connectable="0">
          <mxGeometry x="167" y="285" width="241" height="162" as="geometry"/>
        </mxCell>
        <mxCell id="PYn9PHnMwua01pBCgGZF-105" value="" style="rounded=1;whiteSpace=wrap;html=1;fillColor=#eeeeee;dashed=1;strokeColor=#36393d;rotation=-90;" parent="CRaWEbyV1eBnN35AoO-8-2" vertex="1">
          <mxGeometry x="-52" y="60" width="238" height="40" as="geometry"/>
        </mxCell>
        <mxCell id="PYn9PHnMwua01pBCgGZF-52" value="" style="endArrow=classic;html=1;strokeWidth=1;" parent="CRaWEbyV1eBnN35AoO-8-2" edge="1">
          <mxGeometry width="50" height="50" relative="1" as="geometry">
            <mxPoint x="26" y="0.5" as="sourcePoint"/>
            <mxPoint x="47" y="0.5" as="targetPoint"/>
          </mxGeometry>
        </mxCell>
        <mxCell id="PYn9PHnMwua01pBCgGZF-58" value="" style="rounded=1;whiteSpace=wrap;html=1;fillColor=#f8cecc;strokeColor=#b85450;rotation=-90;" parent="CRaWEbyV1eBnN35AoO-8-2" vertex="1">
          <mxGeometry x="149" y="177" width="20" height="30" as="geometry"/>
        </mxCell>
        <mxCell id="PYn9PHnMwua01pBCgGZF-62" value="" style="rounded=1;whiteSpace=wrap;html=1;fillColor=#fff2cc;strokeColor=#d6b656;rotation=-90;" parent="CRaWEbyV1eBnN35AoO-8-2" vertex="1">
          <mxGeometry x="149" y="164" width="20" height="30" as="geometry"/>
        </mxCell>
        <mxCell id="PYn9PHnMwua01pBCgGZF-63" value="" style="rounded=1;whiteSpace=wrap;html=1;fillColor=#d5e8d4;strokeColor=#82b366;rotation=-90;" parent="CRaWEbyV1eBnN35AoO-8-2" vertex="1">
          <mxGeometry x="149" y="150" width="20" height="30" as="geometry"/>
        </mxCell>
        <mxCell id="PYn9PHnMwua01pBCgGZF-64" value="" style="rounded=1;whiteSpace=wrap;html=1;fillColor=#e1d5e7;strokeColor=#9673a6;rotation=-90;" parent="CRaWEbyV1eBnN35AoO-8-2" vertex="1">
          <mxGeometry x="151" y="138" width="16" height="30" as="geometry"/>
        </mxCell>
        <mxCell id="PYn9PHnMwua01pBCgGZF-72" value="" style="rounded=1;whiteSpace=wrap;html=1;fillColor=#f8cecc;strokeColor=#b85450;rotation=-90;" parent="CRaWEbyV1eBnN35AoO-8-2" vertex="1">
          <mxGeometry x="149" y="115" width="20" height="30" as="geometry"/>
        </mxCell>
        <mxCell id="PYn9PHnMwua01pBCgGZF-73" value="" style="rounded=1;whiteSpace=wrap;html=1;fillColor=#fff2cc;strokeColor=#d6b656;rotation=-90;" parent="CRaWEbyV1eBnN35AoO-8-2" vertex="1">
          <mxGeometry x="149" y="104" width="20" height="30" as="geometry"/>
        </mxCell>
        <mxCell id="PYn9PHnMwua01pBCgGZF-74" value="" style="rounded=1;whiteSpace=wrap;html=1;fillColor=#d5e8d4;strokeColor=#82b366;rotation=-90;" parent="CRaWEbyV1eBnN35AoO-8-2" vertex="1">
          <mxGeometry x="149" y="90" width="20" height="30" as="geometry"/>
        </mxCell>
        <mxCell id="PYn9PHnMwua01pBCgGZF-75" value="" style="rounded=1;whiteSpace=wrap;html=1;fillColor=#e1d5e7;strokeColor=#9673a6;rotation=-90;" parent="CRaWEbyV1eBnN35AoO-8-2" vertex="1">
          <mxGeometry x="151" y="78" width="16" height="30" as="geometry"/>
        </mxCell>
        <mxCell id="PYn9PHnMwua01pBCgGZF-76" value="" style="rounded=1;whiteSpace=wrap;html=1;fillColor=#f8cecc;strokeColor=#b85450;rotation=-90;" parent="CRaWEbyV1eBnN35AoO-8-2" vertex="1">
          <mxGeometry x="149" y="55" width="20" height="30" as="geometry"/>
        </mxCell>
        <mxCell id="PYn9PHnMwua01pBCgGZF-77" value="" style="rounded=1;whiteSpace=wrap;html=1;fillColor=#fff2cc;strokeColor=#d6b656;rotation=-90;" parent="CRaWEbyV1eBnN35AoO-8-2" vertex="1">
          <mxGeometry x="149" y="42" width="20" height="30" as="geometry"/>
        </mxCell>
        <mxCell id="PYn9PHnMwua01pBCgGZF-78" value="" style="rounded=1;whiteSpace=wrap;html=1;fillColor=#d5e8d4;strokeColor=#82b366;rotation=-90;" parent="CRaWEbyV1eBnN35AoO-8-2" vertex="1">
          <mxGeometry x="149" y="28" width="20" height="30" as="geometry"/>
        </mxCell>
        <mxCell id="PYn9PHnMwua01pBCgGZF-79" value="" style="rounded=1;whiteSpace=wrap;html=1;fillColor=#e1d5e7;strokeColor=#9673a6;rotation=-90;" parent="CRaWEbyV1eBnN35AoO-8-2" vertex="1">
          <mxGeometry x="151" y="16" width="16" height="30" as="geometry"/>
        </mxCell>
        <mxCell id="PYn9PHnMwua01pBCgGZF-80" value="" style="rounded=1;whiteSpace=wrap;html=1;fillColor=#f8cecc;strokeColor=#b85450;rotation=-90;" parent="CRaWEbyV1eBnN35AoO-8-2" vertex="1">
          <mxGeometry x="149" y="-6" width="20" height="30" as="geometry"/>
        </mxCell>
        <mxCell id="PYn9PHnMwua01pBCgGZF-81" value="" style="rounded=1;whiteSpace=wrap;html=1;fillColor=#fff2cc;strokeColor=#d6b656;rotation=-90;" parent="CRaWEbyV1eBnN35AoO-8-2" vertex="1">
          <mxGeometry x="149" y="-19" width="20" height="30" as="geometry"/>
        </mxCell>
        <mxCell id="PYn9PHnMwua01pBCgGZF-82" value="" style="rounded=1;whiteSpace=wrap;html=1;fillColor=#d5e8d4;strokeColor=#82b366;rotation=-90;" parent="CRaWEbyV1eBnN35AoO-8-2" vertex="1">
          <mxGeometry x="149" y="-33" width="20" height="30" as="geometry"/>
        </mxCell>
        <mxCell id="PYn9PHnMwua01pBCgGZF-83" value="" style="rounded=1;whiteSpace=wrap;html=1;fillColor=#e1d5e7;strokeColor=#9673a6;rotation=-90;" parent="CRaWEbyV1eBnN35AoO-8-2" vertex="1">
          <mxGeometry x="151" y="-45" width="16" height="30" as="geometry"/>
        </mxCell>
        <mxCell id="PYn9PHnMwua01pBCgGZF-106" value="" style="endArrow=classic;html=1;strokeWidth=1;exitX=0.5;exitY=1;exitDx=0;exitDy=0;entryX=-0.2;entryY=0.033;entryDx=0;entryDy=0;entryPerimeter=0;" parent="CRaWEbyV1eBnN35AoO-8-2" source="PYn9PHnMwua01pBCgGZF-117" target="PYn9PHnMwua01pBCgGZF-62" edge="1">
          <mxGeometry width="50" height="50" relative="1" as="geometry">
            <mxPoint x="97" y="169" as="sourcePoint"/>
            <mxPoint x="362" y="202" as="targetPoint"/>
          </mxGeometry>
        </mxCell>
        <mxCell id="PYn9PHnMwua01pBCgGZF-108" value="" style="endArrow=classic;html=1;strokeWidth=1;exitX=0.5;exitY=1;exitDx=0;exitDy=0;entryX=0.25;entryY=0;entryDx=0;entryDy=0;" parent="CRaWEbyV1eBnN35AoO-8-2" source="PYn9PHnMwua01pBCgGZF-118" target="PYn9PHnMwua01pBCgGZF-62" edge="1">
          <mxGeometry width="50" height="50" relative="1" as="geometry">
            <mxPoint x="75" y="109" as="sourcePoint"/>
            <mxPoint x="122" y="173" as="targetPoint"/>
          </mxGeometry>
        </mxCell>
        <mxCell id="PYn9PHnMwua01pBCgGZF-117" value="" style="rounded=1;whiteSpace=wrap;html=1;fillColor=#f8cecc;strokeColor=#b85450;rotation=-90;" parent="CRaWEbyV1eBnN35AoO-8-2" vertex="1">
          <mxGeometry x="42" y="150" width="50" height="30" as="geometry"/>
        </mxCell>
        <mxCell id="PYn9PHnMwua01pBCgGZF-118" value="" style="rounded=1;whiteSpace=wrap;html=1;fillColor=#fff2cc;strokeColor=#d6b656;rotation=-90;" parent="CRaWEbyV1eBnN35AoO-8-2" vertex="1">
          <mxGeometry x="42" y="94" width="50" height="30" as="geometry"/>
        </mxCell>
        <mxCell id="PYn9PHnMwua01pBCgGZF-119" value="" style="rounded=1;whiteSpace=wrap;html=1;fillColor=#d5e8d4;strokeColor=#82b366;rotation=-90;" parent="CRaWEbyV1eBnN35AoO-8-2" vertex="1">
          <mxGeometry x="42" y="38" width="50" height="30" as="geometry"/>
        </mxCell>
        <mxCell id="PYn9PHnMwua01pBCgGZF-120" value="" style="rounded=1;whiteSpace=wrap;html=1;fillColor=#e1d5e7;strokeColor=#9673a6;rotation=-90;" parent="CRaWEbyV1eBnN35AoO-8-2" vertex="1">
          <mxGeometry x="42" y="-18" width="50" height="30" as="geometry"/>
        </mxCell>
        <mxCell id="PYn9PHnMwua01pBCgGZF-122" value="" style="endArrow=classic;html=1;strokeWidth=1;exitX=0.5;exitY=1;exitDx=0;exitDy=0;entryX=0.25;entryY=0;entryDx=0;entryDy=0;" parent="CRaWEbyV1eBnN35AoO-8-2" source="PYn9PHnMwua01pBCgGZF-119" target="PYn9PHnMwua01pBCgGZF-63" edge="1">
          <mxGeometry width="50" height="50" relative="1" as="geometry">
            <mxPoint x="412" y="232" as="sourcePoint"/>
            <mxPoint x="142" y="165" as="targetPoint"/>
          </mxGeometry>
        </mxCell>
        <mxCell id="PYn9PHnMwua01pBCgGZF-123" value="" style="endArrow=classic;html=1;strokeWidth=1;exitX=0.5;exitY=1;exitDx=0;exitDy=0;entryX=0.5;entryY=0;entryDx=0;entryDy=0;" parent="CRaWEbyV1eBnN35AoO-8-2" source="PYn9PHnMwua01pBCgGZF-120" target="PYn9PHnMwua01pBCgGZF-64" edge="1">
          <mxGeometry width="50" height="50" relative="1" as="geometry">
            <mxPoint x="412" y="232" as="sourcePoint"/>
            <mxPoint x="362" y="182" as="targetPoint"/>
          </mxGeometry>
        </mxCell>
        <mxCell id="PYn9PHnMwua01pBCgGZF-124" value="" style="endArrow=classic;html=1;strokeWidth=1;exitX=0.5;exitY=1;exitDx=0;exitDy=0;entryX=0.25;entryY=0;entryDx=0;entryDy=0;" parent="CRaWEbyV1eBnN35AoO-8-2" source="PYn9PHnMwua01pBCgGZF-117" target="PYn9PHnMwua01pBCgGZF-72" edge="1">
          <mxGeometry width="50" height="50" relative="1" as="geometry">
            <mxPoint x="412" y="232" as="sourcePoint"/>
            <mxPoint x="362" y="182" as="targetPoint"/>
          </mxGeometry>
        </mxCell>
        <mxCell id="PYn9PHnMwua01pBCgGZF-125" value="" style="endArrow=classic;html=1;strokeWidth=1;exitX=0.5;exitY=1;exitDx=0;exitDy=0;entryX=0.25;entryY=0;entryDx=0;entryDy=0;" parent="CRaWEbyV1eBnN35AoO-8-2" source="PYn9PHnMwua01pBCgGZF-117" target="PYn9PHnMwua01pBCgGZF-76" edge="1">
          <mxGeometry width="50" height="50" relative="1" as="geometry">
            <mxPoint x="412" y="232" as="sourcePoint"/>
            <mxPoint x="362" y="182" as="targetPoint"/>
          </mxGeometry>
        </mxCell>
        <mxCell id="PYn9PHnMwua01pBCgGZF-126" value="" style="endArrow=classic;html=1;strokeWidth=1;exitX=0.5;exitY=1;exitDx=0;exitDy=0;entryX=0.25;entryY=0;entryDx=0;entryDy=0;" parent="CRaWEbyV1eBnN35AoO-8-2" source="PYn9PHnMwua01pBCgGZF-117" target="PYn9PHnMwua01pBCgGZF-80" edge="1">
          <mxGeometry width="50" height="50" relative="1" as="geometry">
            <mxPoint x="412" y="232" as="sourcePoint"/>
            <mxPoint x="362" y="182" as="targetPoint"/>
          </mxGeometry>
        </mxCell>
        <mxCell id="PYn9PHnMwua01pBCgGZF-127" value="" style="endArrow=classic;html=1;strokeWidth=1;exitX=0.5;exitY=1;exitDx=0;exitDy=0;entryX=0.25;entryY=0;entryDx=0;entryDy=0;" parent="CRaWEbyV1eBnN35AoO-8-2" source="PYn9PHnMwua01pBCgGZF-118" target="PYn9PHnMwua01pBCgGZF-73" edge="1">
          <mxGeometry width="50" height="50" relative="1" as="geometry">
            <mxPoint x="412" y="232" as="sourcePoint"/>
            <mxPoint x="362" y="182" as="targetPoint"/>
          </mxGeometry>
        </mxCell>
        <mxCell id="PYn9PHnMwua01pBCgGZF-128" value="" style="endArrow=classic;html=1;strokeWidth=1;exitX=0.5;exitY=1;exitDx=0;exitDy=0;" parent="CRaWEbyV1eBnN35AoO-8-2" source="PYn9PHnMwua01pBCgGZF-118" edge="1">
          <mxGeometry width="50" height="50" relative="1" as="geometry">
            <mxPoint x="412" y="232" as="sourcePoint"/>
            <mxPoint x="144" y="62" as="targetPoint"/>
          </mxGeometry>
        </mxCell>
        <mxCell id="PYn9PHnMwua01pBCgGZF-129" value="" style="endArrow=classic;html=1;strokeWidth=1;exitX=0.5;exitY=1;exitDx=0;exitDy=0;" parent="CRaWEbyV1eBnN35AoO-8-2" source="PYn9PHnMwua01pBCgGZF-118" edge="1">
          <mxGeometry width="50" height="50" relative="1" as="geometry">
            <mxPoint x="82" y="106" as="sourcePoint"/>
            <mxPoint x="142" y="-1" as="targetPoint"/>
          </mxGeometry>
        </mxCell>
        <mxCell id="PYn9PHnMwua01pBCgGZF-130" value="" style="endArrow=classic;html=1;strokeWidth=1;exitX=0.5;exitY=1;exitDx=0;exitDy=0;entryX=0.25;entryY=0;entryDx=0;entryDy=0;" parent="CRaWEbyV1eBnN35AoO-8-2" source="PYn9PHnMwua01pBCgGZF-119" target="PYn9PHnMwua01pBCgGZF-74" edge="1">
          <mxGeometry width="50" height="50" relative="1" as="geometry">
            <mxPoint x="412" y="232" as="sourcePoint"/>
            <mxPoint x="362" y="182" as="targetPoint"/>
          </mxGeometry>
        </mxCell>
        <mxCell id="PYn9PHnMwua01pBCgGZF-131" value="" style="endArrow=classic;html=1;strokeWidth=1;exitX=0.5;exitY=1;exitDx=0;exitDy=0;entryX=1.1;entryY=0;entryDx=0;entryDy=0;entryPerimeter=0;" parent="CRaWEbyV1eBnN35AoO-8-2" source="PYn9PHnMwua01pBCgGZF-119" target="PYn9PHnMwua01pBCgGZF-77" edge="1">
          <mxGeometry width="50" height="50" relative="1" as="geometry">
            <mxPoint x="412" y="232" as="sourcePoint"/>
            <mxPoint x="362" y="182" as="targetPoint"/>
          </mxGeometry>
        </mxCell>
        <mxCell id="PYn9PHnMwua01pBCgGZF-132" value="" style="endArrow=classic;html=1;strokeWidth=1;exitX=0.5;exitY=1;exitDx=0;exitDy=0;entryX=1.1;entryY=0;entryDx=0;entryDy=0;entryPerimeter=0;" parent="CRaWEbyV1eBnN35AoO-8-2" source="PYn9PHnMwua01pBCgGZF-119" target="PYn9PHnMwua01pBCgGZF-81" edge="1">
          <mxGeometry width="50" height="50" relative="1" as="geometry">
            <mxPoint x="412" y="232" as="sourcePoint"/>
            <mxPoint x="362" y="182" as="targetPoint"/>
          </mxGeometry>
        </mxCell>
        <mxCell id="PYn9PHnMwua01pBCgGZF-134" value="" style="endArrow=classic;html=1;strokeWidth=1;exitX=0.5;exitY=1;exitDx=0;exitDy=0;entryX=0.25;entryY=0;entryDx=0;entryDy=0;" parent="CRaWEbyV1eBnN35AoO-8-2" source="PYn9PHnMwua01pBCgGZF-120" target="PYn9PHnMwua01pBCgGZF-75" edge="1">
          <mxGeometry width="50" height="50" relative="1" as="geometry">
            <mxPoint x="412" y="232" as="sourcePoint"/>
            <mxPoint x="142" y="92" as="targetPoint"/>
          </mxGeometry>
        </mxCell>
        <mxCell id="PYn9PHnMwua01pBCgGZF-135" value="" style="endArrow=classic;html=1;strokeWidth=1;exitX=0.5;exitY=1;exitDx=0;exitDy=0;entryX=0.5;entryY=0;entryDx=0;entryDy=0;" parent="CRaWEbyV1eBnN35AoO-8-2" source="PYn9PHnMwua01pBCgGZF-120" target="PYn9PHnMwua01pBCgGZF-79" edge="1">
          <mxGeometry width="50" height="50" relative="1" as="geometry">
            <mxPoint x="412" y="232" as="sourcePoint"/>
            <mxPoint x="362" y="182" as="targetPoint"/>
          </mxGeometry>
        </mxCell>
        <mxCell id="PYn9PHnMwua01pBCgGZF-136" value="" style="endArrow=classic;html=1;strokeWidth=1;exitX=0.5;exitY=1;exitDx=0;exitDy=0;entryX=0.5;entryY=0;entryDx=0;entryDy=0;" parent="CRaWEbyV1eBnN35AoO-8-2" source="PYn9PHnMwua01pBCgGZF-120" target="PYn9PHnMwua01pBCgGZF-83" edge="1">
          <mxGeometry width="50" height="50" relative="1" as="geometry">
            <mxPoint x="412" y="232" as="sourcePoint"/>
            <mxPoint x="362" y="182" as="targetPoint"/>
          </mxGeometry>
        </mxCell>
        <mxCell id="PYn9PHnMwua01pBCgGZF-53" value="" style="endArrow=classic;html=1;strokeWidth=1;" parent="CRaWEbyV1eBnN35AoO-8-2" edge="1">
          <mxGeometry width="50" height="50" relative="1" as="geometry">
            <mxPoint x="-95" y="112.5" as="sourcePoint"/>
            <mxPoint x="48" y="112.5" as="targetPoint"/>
          </mxGeometry>
        </mxCell>
        <mxCell id="PYn9PHnMwua01pBCgGZF-144" value="&lt;span style=&quot;font-size: 15px&quot;&gt;&lt;b&gt;32&lt;/b&gt;&lt;/span&gt;" style="rounded=0;whiteSpace=wrap;html=1;strokeColor=none;fillColor=none;rotation=0;" parent="CRaWEbyV1eBnN35AoO-8-2" vertex="1">
          <mxGeometry x="149" y="60" width="70" height="35" as="geometry"/>
        </mxCell>
        <mxCell id="PYn9PHnMwua01pBCgGZF-95" value="&lt;b&gt;&lt;font style=&quot;font-size: 15px&quot;&gt;Conv1&lt;/font&gt;&lt;/b&gt;" style="rounded=1;whiteSpace=wrap;html=1;fillColor=#ffe6cc;strokeColor=#d79b00;rotation=0;" parent="CRaWEbyV1eBnN35AoO-8-3" vertex="1">
          <mxGeometry x="460" y="359" width="50" height="30" as="geometry"/>
        </mxCell>
        <mxCell id="PYn9PHnMwua01pBCgGZF-89" value="" style="endArrow=classic;html=1;exitX=1;exitY=0.5;exitDx=0;exitDy=0;strokeWidth=1;entryX=0;entryY=0.5;entryDx=0;entryDy=0;" parent="CRaWEbyV1eBnN35AoO-8-3" source="PYn9PHnMwua01pBCgGZF-85" target="PYn9PHnMwua01pBCgGZF-95" edge="1">
          <mxGeometry width="50" height="50" relative="1" as="geometry">
            <mxPoint x="403" y="555" as="sourcePoint"/>
            <mxPoint x="433" y="554" as="targetPoint"/>
          </mxGeometry>
        </mxCell>
        <mxCell id="PYn9PHnMwua01pBCgGZF-140" value="&lt;b&gt;&lt;font style=&quot;font-size: 15px&quot;&gt;8&lt;/font&gt;&lt;/b&gt;" style="rounded=0;whiteSpace=wrap;html=1;strokeColor=none;fillColor=none;rotation=0;" parent="CRaWEbyV1eBnN35AoO-8-3" vertex="1">
          <mxGeometry x="116" y="375" width="40" height="28" as="geometry"/>
        </mxCell>
        <mxCell id="PYn9PHnMwua01pBCgGZF-142" value="&lt;b&gt;&lt;font style=&quot;font-size: 15px&quot;&gt;8&lt;/font&gt;&lt;/b&gt;" style="rounded=0;whiteSpace=wrap;html=1;strokeColor=none;fillColor=none;rotation=0;" parent="CRaWEbyV1eBnN35AoO-8-3" vertex="1">
          <mxGeometry x="185" y="265" width="29" height="24" as="geometry"/>
        </mxCell>
        <mxCell id="PYn9PHnMwua01pBCgGZF-38" value="&lt;b&gt;&lt;font style=&quot;font-size: 15px&quot;&gt;Conv1&lt;/font&gt;&lt;/b&gt;" style="rounded=1;whiteSpace=wrap;html=1;fillColor=#ffe6cc;strokeColor=#d79b00;rotation=0;" parent="1" vertex="1">
          <mxGeometry x="-720" y="456" width="50" height="30" as="geometry"/>
        </mxCell>
        <mxCell id="PYn9PHnMwua01pBCgGZF-114" value="" style="endArrow=classic;html=1;strokeWidth=1;entryX=0.5;entryY=0;entryDx=0;entryDy=0;exitX=1;exitY=0.5;exitDx=0;exitDy=0;" parent="1" source="PYn9PHnMwua01pBCgGZF-38" target="PYn9PHnMwua01pBCgGZF-41" edge="1">
          <mxGeometry width="50" height="50" relative="1" as="geometry">
            <mxPoint x="-745" y="379" as="sourcePoint"/>
            <mxPoint x="-688" y="166" as="targetPoint"/>
          </mxGeometry>
        </mxCell>
        <mxCell id="PYn9PHnMwua01pBCgGZF-115" value="" style="endArrow=classic;html=1;strokeWidth=1;exitX=1;exitY=0.5;exitDx=0;exitDy=0;entryX=0.5;entryY=0;entryDx=0;entryDy=0;" parent="1" source="PYn9PHnMwua01pBCgGZF-38" target="PYn9PHnMwua01pBCgGZF-42" edge="1">
          <mxGeometry width="50" height="50" relative="1" as="geometry">
            <mxPoint x="-68" y="616" as="sourcePoint"/>
            <mxPoint x="-648" y="436" as="targetPoint"/>
          </mxGeometry>
        </mxCell>
        <mxCell id="PYn9PHnMwua01pBCgGZF-116" value="" style="endArrow=classic;html=1;strokeWidth=1;exitX=1;exitY=0.5;exitDx=0;exitDy=0;entryX=0.5;entryY=0;entryDx=0;entryDy=0;" parent="1" source="PYn9PHnMwua01pBCgGZF-38" target="PYn9PHnMwua01pBCgGZF-43" edge="1">
          <mxGeometry width="50" height="50" relative="1" as="geometry">
            <mxPoint x="-68" y="616" as="sourcePoint"/>
            <mxPoint x="-118" y="566" as="targetPoint"/>
          </mxGeometry>
        </mxCell>
        <mxCell id="PYn9PHnMwua01pBCgGZF-39" value="" style="endArrow=classic;html=1;exitX=1;exitY=0.5;exitDx=0;exitDy=0;strokeWidth=1;entryX=0.5;entryY=0;entryDx=0;entryDy=0;" parent="1" source="PYn9PHnMwua01pBCgGZF-38" target="PYn9PHnMwua01pBCgGZF-1" edge="1">
          <mxGeometry width="50" height="50" relative="1" as="geometry">
            <mxPoint x="-678" y="469" as="sourcePoint"/>
            <mxPoint x="-648" y="469" as="targetPoint"/>
          </mxGeometry>
        </mxCell>
        <mxCell id="PYn9PHnMwua01pBCgGZF-86" value="" style="endArrow=classic;html=1;strokeWidth=1;entryX=0;entryY=0.5;entryDx=0;entryDy=0;" parent="1" target="PYn9PHnMwua01pBCgGZF-38" edge="1">
          <mxGeometry width="50" height="50" relative="1" as="geometry">
            <mxPoint x="-760" y="471" as="sourcePoint"/>
            <mxPoint x="-755" y="486" as="targetPoint"/>
          </mxGeometry>
        </mxCell>
        <mxCell id="PYn9PHnMwua01pBCgGZF-143" value="&lt;b&gt;&lt;font style=&quot;font-size: 15px&quot;&gt;32&lt;/font&gt;&lt;/b&gt;" style="rounded=0;whiteSpace=wrap;html=1;strokeColor=none;fillColor=none;rotation=0;" parent="1" vertex="1">
          <mxGeometry x="-760" y="444" width="40" height="35" as="geometry"/>
        </mxCell>
        <mxCell id="PYn9PHnMwua01pBCgGZF-109" value="" style="endArrow=classic;html=1;strokeWidth=1;spacing=0;entryX=0;entryY=0.5;entryDx=0;entryDy=0;" parent="1" target="PYn9PHnMwua01pBCgGZF-90" edge="1">
          <mxGeometry width="50" height="50" relative="1" as="geometry">
            <mxPoint x="-740" y="471" as="sourcePoint"/>
            <mxPoint x="-126" y="701" as="targetPoint"/>
            <Array as="points">
              <mxPoint x="-740" y="600"/>
              <mxPoint x="-88" y="600"/>
            </Array>
          </mxGeometry>
        </mxCell>
      </root>
    </mxGraphModel>
  </diagram>
</mxfile>
